<mxfile host="65bd71144e" pages="2">
    <diagram id="b5oJCEWMyFYrRd6jnJKM" name="Page-1">
        <mxGraphModel dx="808" dy="690" grid="1" gridSize="10" guides="1" tooltips="1" connect="1" arrows="1" fold="1" page="1" pageScale="1" pageWidth="850" pageHeight="1100" math="0" shadow="0">
            <root>
                <mxCell id="0"/>
                <mxCell id="1" parent="0"/>
                <mxCell id="KH8iNM44NsBBeB5rh1bY-1" value="aws_vpc" style="rounded=1;whiteSpace=wrap;html=1;strokeWidth=3;" parent="1" vertex="1">
                    <mxGeometry x="340" y="180" width="120" height="60" as="geometry"/>
                </mxCell>
                <mxCell id="KH8iNM44NsBBeB5rh1bY-2" value="aws_subnet&lt;br&gt;aws_vpc.vpc.id" style="rounded=1;whiteSpace=wrap;html=1;strokeWidth=3;" parent="1" vertex="1">
                    <mxGeometry x="340" y="330" width="120" height="60" as="geometry"/>
                </mxCell>
                <mxCell id="KH8iNM44NsBBeB5rh1bY-3" value="aws_instance&lt;br&gt;aws_subnet.subnet1.id" style="rounded=1;whiteSpace=wrap;html=1;strokeWidth=3;" parent="1" vertex="1">
                    <mxGeometry x="300" y="480" width="190" height="60" as="geometry"/>
                </mxCell>
                <mxCell id="KH8iNM44NsBBeB5rh1bY-5" value="" style="endArrow=classic;html=1;rounded=0;exitX=0.5;exitY=0;exitDx=0;exitDy=0;" parent="1" source="KH8iNM44NsBBeB5rh1bY-2" edge="1">
                    <mxGeometry width="50" height="50" relative="1" as="geometry">
                        <mxPoint x="350" y="290" as="sourcePoint"/>
                        <mxPoint x="400" y="240" as="targetPoint"/>
                    </mxGeometry>
                </mxCell>
                <mxCell id="KH8iNM44NsBBeB5rh1bY-6" value="" style="endArrow=classic;html=1;rounded=0;exitX=0.5;exitY=0;exitDx=0;exitDy=0;" parent="1" edge="1">
                    <mxGeometry width="50" height="50" relative="1" as="geometry">
                        <mxPoint x="399.5" y="480" as="sourcePoint"/>
                        <mxPoint x="399.5" y="390" as="targetPoint"/>
                    </mxGeometry>
                </mxCell>
            </root>
        </mxGraphModel>
    </diagram>
    <diagram id="yXFdzVb-WNefUGYK2Us4" name="Page-2">
        <mxGraphModel dx="808" dy="690" grid="1" gridSize="10" guides="1" tooltips="1" connect="1" arrows="1" fold="1" page="1" pageScale="1" pageWidth="850" pageHeight="1100" math="0" shadow="0">
            <root>
                <mxCell id="MukCajckhvl_l8_VbR9M-0"/>
                <mxCell id="MukCajckhvl_l8_VbR9M-1" parent="MukCajckhvl_l8_VbR9M-0"/>
                <mxCell id="MukCajckhvl_l8_VbR9M-2" value="aws_iam_role" style="rounded=1;whiteSpace=wrap;html=1;strokeWidth=3;" parent="MukCajckhvl_l8_VbR9M-1" vertex="1">
                    <mxGeometry x="285" y="180" width="230" height="60" as="geometry"/>
                </mxCell>
                <mxCell id="MukCajckhvl_l8_VbR9M-4" value="aws_instance" style="rounded=1;whiteSpace=wrap;html=1;strokeWidth=3;" parent="MukCajckhvl_l8_VbR9M-1" vertex="1">
                    <mxGeometry x="130" y="440" width="230" height="60" as="geometry"/>
                </mxCell>
                <mxCell id="MukCajckhvl_l8_VbR9M-6" value="" style="endArrow=classic;html=1;rounded=0;exitX=0.5;exitY=0;exitDx=0;exitDy=0;" parent="MukCajckhvl_l8_VbR9M-1" source="MukCajckhvl_l8_VbR9M-8" edge="1">
                    <mxGeometry width="50" height="50" relative="1" as="geometry">
                        <mxPoint x="390" y="330" as="sourcePoint"/>
                        <mxPoint x="390" y="240" as="targetPoint"/>
                    </mxGeometry>
                </mxCell>
                <mxCell id="MukCajckhvl_l8_VbR9M-7" value="aws_iam_role_policy" style="rounded=1;whiteSpace=wrap;html=1;strokeWidth=3;" parent="MukCajckhvl_l8_VbR9M-1" vertex="1">
                    <mxGeometry x="440" y="320" width="230" height="60" as="geometry"/>
                </mxCell>
                <mxCell id="MukCajckhvl_l8_VbR9M-8" value="aws_iam_instance_profile" style="rounded=1;whiteSpace=wrap;html=1;strokeWidth=3;" parent="MukCajckhvl_l8_VbR9M-1" vertex="1">
                    <mxGeometry x="130" y="320" width="230" height="60" as="geometry"/>
                </mxCell>
                <mxCell id="MukCajckhvl_l8_VbR9M-9" value="" style="endArrow=classic;html=1;rounded=0;exitX=0.5;exitY=0;exitDx=0;exitDy=0;" parent="MukCajckhvl_l8_VbR9M-1" source="MukCajckhvl_l8_VbR9M-7" edge="1">
                    <mxGeometry width="50" height="50" relative="1" as="geometry">
                        <mxPoint x="400" y="430" as="sourcePoint"/>
                        <mxPoint x="390" y="240" as="targetPoint"/>
                    </mxGeometry>
                </mxCell>
                <mxCell id="MukCajckhvl_l8_VbR9M-10" value="depends_on" style="rounded=0;whiteSpace=wrap;html=1;strokeWidth=3;" parent="MukCajckhvl_l8_VbR9M-1" vertex="1">
                    <mxGeometry x="510" y="450" width="90" height="40" as="geometry"/>
                </mxCell>
                <mxCell id="MukCajckhvl_l8_VbR9M-11" value="" style="endArrow=none;dashed=1;html=1;rounded=0;entryX=0;entryY=0.5;entryDx=0;entryDy=0;" parent="MukCajckhvl_l8_VbR9M-1" target="MukCajckhvl_l8_VbR9M-10" edge="1">
                    <mxGeometry width="50" height="50" relative="1" as="geometry">
                        <mxPoint x="360" y="470" as="sourcePoint"/>
                        <mxPoint x="410" y="420" as="targetPoint"/>
                    </mxGeometry>
                </mxCell>
                <mxCell id="MukCajckhvl_l8_VbR9M-12" value="" style="endArrow=classic;html=1;rounded=0;exitX=0.433;exitY=0;exitDx=0;exitDy=0;exitPerimeter=0;dashed=1;" parent="MukCajckhvl_l8_VbR9M-1" source="MukCajckhvl_l8_VbR9M-10" edge="1">
                    <mxGeometry width="50" height="50" relative="1" as="geometry">
                        <mxPoint x="500" y="430" as="sourcePoint"/>
                        <mxPoint x="550" y="380" as="targetPoint"/>
                    </mxGeometry>
                </mxCell>
                <mxCell id="MukCajckhvl_l8_VbR9M-13" value="" style="endArrow=classic;html=1;rounded=0;exitX=0.474;exitY=-0.017;exitDx=0;exitDy=0;exitPerimeter=0;" parent="MukCajckhvl_l8_VbR9M-1" source="MukCajckhvl_l8_VbR9M-4" edge="1">
                    <mxGeometry width="50" height="50" relative="1" as="geometry">
                        <mxPoint x="190" y="430" as="sourcePoint"/>
                        <mxPoint x="240" y="380" as="targetPoint"/>
                    </mxGeometry>
                </mxCell>
            </root>
        </mxGraphModel>
    </diagram>
</mxfile>